<?xml version="1.0" encoding="UTF-8"?>
<svg id="Layer_1" data-name="Layer 1" xmlns="http://www.w3.org/2000/svg" viewBox="0 0 349.1 285.77">
  <defs>
    <style>
      .cls-1 {
        fill: #f16623;
      }

      .cls-2 {
        fill: #fff;
        font-family: Kavivanar-Regular, Kavivanar;
        font-size: 55px;
        stroke: #fff;
        stroke-miterlimit: 10;
        stroke-width: 2px;
      }
    </style>
  </defs>
  <path class="cls-1" d="M256.41,140.79c-.19,.25-.37,.5-.56,.75-.81,0-1.63,0-2.44,0-8.33-.02-16.66-.02-25-.06-1.6,0-2.78,.37-3.76,1.85-9.85,14.92-19.78,29.79-29.68,44.68-.39,.58-.67,1.24-1.18,2.19h154.89C306.19,126.66,263.98,63.54,221.48,0c-25.45,37.94-50.51,75.29-75.9,113.14-11.72-17.93-23.04-35.22-34.77-53.15,1.78,0,2.67,0,3.55,0,7.83,0,15.67-.06,23.5,.05,2.06,.03,3.36-.61,4.5-2.35,9.26-14.02,18.6-27.98,27.9-41.96,.7-1.06,1.33-2.17,2.2-3.6H18.66c42.34,63.31,84.37,126.15,126.78,189.55,25.45-38.01,50.56-75.52,76.03-113.56,11.87,17.9,23.4,35.29,34.93,52.67Z"/>
  <text class="cls-2" transform="translate(1 261.84)"><tspan x="0" y="0">Vacation Asia</tspan></text>
</svg>